<svg id="Layer_3" enable-background="new 0 0 64 64" height="512" viewBox="0 0 64 64" width="512" xmlns="http://www.w3.org/2000/svg"><path d="m22 42h20v20h-20z" fill="#c66b60"/><path d="m22 57.922c8.317-.728 14.972-7.429 15.886-15.922h-15.886z" fill="#e47c6e"/><path d="m30 42v8h4v-8" fill="#ebf7fe"/><path d="m52 24c0-2.761-2.239-5-5-5s-5 2.239-5 5c0-2.761-2.239-5-5-5s-5 2.239-5 5c0-2.761-2.239-5-5-5s-5 2.239-5 5c0-2.761-2.239-5-5-5s-5 2.239-5 5v-2c0-11.046 8.954-20 20-20 11.046 0 20 8.954 20 20z" fill="#f5b953"/><path d="m12 22v2c0-2.761 2.239-5 5-5s5 2.239 5 5c0-2.761 2.239-5 5-5 1.642 0 3.085.802 3.997 2.024 6.065-3.732 10.003-9.742 10.003-16.524 0-.117-.008-.232-.01-.348-2.706-1.365-5.753-2.152-8.99-2.152-11.046 0-20 8.954-20 20z" fill="#f9d18b"/><path d="m42 63h-20c-.552 0-1-.447-1-1v-20c0-.553.448-1 1-1h20c.552 0 1 .447 1 1v20c0 .553-.448 1-1 1zm-19-2h18v-18h-18z"/><path d="m23 24h-2c0-2.206-1.794-4-4-4s-4 1.794-4 4h-2c0-3.309 2.691-6 6-6s6 2.691 6 6z"/><path d="m53 24h-2c0-2.206-1.794-4-4-4s-4 1.794-4 4h-2c0-3.309 2.691-6 6-6s6 2.691 6 6z"/><path d="m42.874 42.485-1.748-.971 9.874-17.773v-1.741c0-10.477-8.523-19-19-19s-19 8.523-19 19v1.741l9.874 17.773-1.748.971-10-18c-.083-.148-.126-.315-.126-.485v-2c0-11.579 9.42-21 21-21s21 9.421 21 21v2c0 .17-.043.337-.126.485z"/><path d="m26.037 42.268-5-18c-.025-.087-.037-.177-.037-.268 0-3.309 2.691-6 6-6s6 2.691 6 6h-2c0-2.206-1.794-4-4-4-2.163 0-3.93 1.725-3.998 3.871l4.961 17.861z"/><path d="m37.963 42.268-1.927-.535 4.961-17.861c-.067-2.147-1.834-3.872-3.997-3.872-2.206 0-4 1.794-4 4h-2c0-3.309 2.691-6 6-6s6 2.691 6 6c0 .091-.012.181-.037.268z"/><path d="m31 23h2v19h-2z"/><path d="m34 51h-4c-.552 0-1-.447-1-1v-8h2v7h2v-7h2v8c0 .553-.448 1-1 1z"/><path d="m46.737 19.187c-1.34-7.062-7.537-12.187-14.737-12.187v-2c8.159 0 15.183 5.81 16.702 13.813z"/><path d="m28.25 7.473-.5-1.938c.69-.178 1.406-.313 2.125-.403l.248 1.984c-.634.079-1.265.199-1.873.357z"/></svg>