<?xml version="1.0" encoding="iso-8859-1"?>
<!-- Generator: Adobe Illustrator 19.0.0, SVG Export Plug-In . SVG Version: 6.00 Build 0)  -->
<svg version="1.1" id="Capa_1" xmlns="http://www.w3.org/2000/svg" xmlns:xlink="http://www.w3.org/1999/xlink" x="0px" y="0px"
	 viewBox="0 0 512 512" style="enable-background:new 0 0 512 512;" xml:space="preserve">
<path style="fill:#FF6B6B;" d="M152.661,261.766l-1.398-1.398l-64.517-35.841c108.302-108.302,166.166-93.45,166.166-93.45
	l0.007,0.007C218.862,168.368,177.988,219.895,152.661,261.766z"/>
<path style="fill:#EE5253;" d="M250.217,359.323c41.872-25.326,93.407-66.194,130.69-100.252c0,0,14.861,57.871-93.441,166.173
	l-35.842-64.517L250.217,359.323z"/>
<path style="fill:#E4E8EB;" d="M402.548,238.475c-6.416,6.415-13.699,13.356-21.642,20.595
	c-37.283,34.058-88.818,74.925-130.69,100.252l-97.555-97.556c25.326-41.871,66.201-93.398,100.259-130.682
	c7.241-7.943,14.179-15.227,20.595-21.642c47.133-47.133,94.173-75.219,140.582-89.599l78.05,78.05
	C477.768,144.303,449.682,191.342,402.548,238.475z"/>
<path style="fill:#CAD0D7;" d="M492.148,97.894L470.64,76.387c-14.38,46.409-42.467,93.448-89.6,140.581
	c-6.415,6.416-13.698,13.356-21.642,20.595c-37.283,34.059-88.817,74.926-130.689,100.252l21.507,21.508
	c41.872-25.326,93.407-66.194,130.69-100.252c7.943-7.24,15.226-14.18,21.642-20.595
	C449.682,191.342,477.768,144.303,492.148,97.894z"/>
<path style="fill:#FF6B6B;" d="M492.148,97.894l-78.05-78.05c30.38-9.419,60.487-12.96,90.165-12.115
	C505.108,37.406,501.568,67.514,492.148,97.894z"/>
<path style="fill:#EE5253;" d="M504.262,7.728c-7.207-0.205-14.438-0.147-21.694,0.187c-1.039,22.624-4.796,45.469-11.928,68.472
	l21.507,21.507C501.568,67.514,505.108,37.406,504.262,7.728z"/>
<path style="fill:#54A0FF;" d="M401.552,110.44c13.856,13.856,13.856,36.323,0,50.179c-13.856,13.857-36.323,13.857-50.186,0.007
	c-13.857-13.856-13.85-36.33,0-50.179C365.229,96.582,387.695,96.582,401.552,110.44z"/>
<path style="fill:#2E86DE;" d="M401.552,110.44c-3.849-3.849-8.364-6.624-13.172-8.335c4.448,12.502,1.672,26.999-8.335,37.007
	c-10.009,10.009-24.509,12.784-37.016,8.336c1.71,4.811,4.486,9.328,8.337,13.178c13.863,13.85,36.33,13.85,50.186-0.007
	C415.408,146.762,415.408,124.295,401.552,110.44z"/>
<path style="fill:#54A0FF;" d="M315.516,196.475c13.856,13.857,13.863,36.316-0.001,50.18
	c-13.856,13.856-36.322,13.856-50.172-0.007c-13.863-13.85-13.863-36.316-0.006-50.173
	C279.193,182.619,301.659,182.619,315.516,196.475z"/>
<path style="fill:#2E86DE;" d="M315.523,196.468c-3.849-3.848-8.364-6.624-13.173-8.335c4.449,12.502,1.673,26.999-8.335,37.007
	c-10.009,10.009-24.508,12.785-37.015,8.337c1.709,4.81,4.486,9.328,8.336,13.178c13.864,13.849,36.331,13.849,50.187-0.007
	C329.38,232.791,329.38,210.326,315.523,196.468z"/>
<path style="fill:#576574;" d="M194.275,360.727l-21.506-21.505l-21.505-21.505l-17.994-17.994
	c4.159-10.967,10.896-23.914,19.392-37.957l97.555,97.556c-14.036,8.487-26.989,15.233-37.957,19.391L194.275,360.727z"/>
<path style="fill:#222F3E;" d="M228.71,337.815c-14.037,8.488-26.99,15.233-37.957,19.392l3.523,3.522l17.985,17.986
	c10.968-4.156,23.922-10.903,37.957-19.391L228.71,337.815z"/>
<path style="fill:#FF6B6B;" d="M158.432,353.559c19.792,19.792,19.791,51.895,0,71.686c-19.8,19.799-127.78,95.679-147.571,75.887
	c-19.799-19.799,56.087-127.772,75.886-147.572C106.538,333.767,138.631,333.76,158.432,353.559z"/>
<path style="fill:#EE5253;" d="M158.432,353.559c-3.748-3.747-7.937-6.782-12.399-9.111c9.972,19.109,6.936,43.244-9.109,59.289
	c-16.052,16.052-90.059,68.959-128.047,77.868c-2.079,8.87-1.765,15.78,1.983,19.527c19.791,19.792,127.771-56.087,147.571-75.887
	C178.224,405.452,178.225,373.351,158.432,353.559z"/>
<path style="fill:#FECA57;" d="M136.926,375.065c7.915,7.915,7.915,20.76,0,28.674c-7.921,7.922-72.875,60.044-80.796,52.122
	c-7.922-7.921,44.201-72.875,52.123-80.795C116.166,367.151,129.004,367.144,136.926,375.065z"/>
<path d="M506.485,72.394c3.67-18.268,5.525-37.186,5.505-56.214c0-2.869-0.051-5.778-0.132-8.668
	c-0.101-4.025-3.345-7.269-7.38-7.39C501.517,0.041,498.597,0,495.809,0h-0.182c-14.598,0-29.167,1.095-43.299,3.254
	c-13.524,2.07-27.01,5.179-40.162,9.237c-0.233,0.061-0.461,0.132-0.688,0.215c-0.982,0.306-1.967,0.603-2.945,0.92
	c-14.882,4.815-29.724,11-44.1,18.38c-14.932,7.664-29.805,16.849-44.201,27.291c-1.652,1.186-2.727,2.95-3.052,4.957
	c-0.323,1.998,0.152,4.015,1.348,5.657c1.429,1.967,3.732,3.144,6.164,3.144c1.612,0,3.144-0.497,4.452-1.44
	c13.847-10.016,28.071-18.796,42.285-26.105c13.261-6.809,26.894-12.519,40.556-17.018l71.493,71.492
	c-2.583,7.87-5.518,15.662-8.836,23.324c-7.978,18.451-18.329,36.821-30.758,54.583c-13.017,18.622-28.731,37.195-46.715,55.211
	c-11.537,11.537-26.014,24.858-41.89,38.513c-16.453,14.173-34.083,28.426-50.983,41.231
	c-17.132,13.007-33.465,24.474-48.559,34.095c-1.483,0.946-2.94,1.861-4.386,2.762l-89.063-89.062
	c6.889-11.068,14.919-22.976,23.933-35.465c27.656-38.412,64.031-81.721,92.67-110.35c8.82-8.83,17.853-17.164,26.825-24.787
	c3.193-2.718,3.579-7.522,0.872-10.716c-1.451-1.703-3.559-2.687-5.8-2.687c-1.803,0-3.548,0.65-4.917,1.815
	c-9.317,7.909-18.643,16.526-27.737,25.619c-5.739,5.739-11.828,12.103-18.137,18.943c-16.504-1.388-74.524,2.095-168.492,96.01
	c-0.009,0.008-0.017,0.016-0.024,0.024c-0.036,0.038-0.073,0.072-0.111,0.109c-0.05,0.05-0.092,0.103-0.141,0.155
	c-0.108,0.115-0.218,0.232-0.319,0.355c-0.08,0.096-0.153,0.196-0.228,0.295c-0.074,0.097-0.148,0.193-0.218,0.295
	c-0.091,0.133-0.172,0.27-0.253,0.407c-0.035,0.061-0.077,0.116-0.111,0.177c-0.011,0.02-0.018,0.04-0.028,0.059
	c-0.082,0.151-0.155,0.306-0.227,0.461c-0.035,0.077-0.074,0.153-0.106,0.23c-0.06,0.142-0.108,0.285-0.159,0.43
	c-0.034,0.097-0.072,0.194-0.102,0.291c-0.035,0.118-0.063,0.236-0.093,0.356c-0.031,0.126-0.066,0.25-0.091,0.377
	c-0.019,0.093-0.029,0.189-0.046,0.282c-0.023,0.15-0.05,0.3-0.064,0.45c-0.009,0.084-0.009,0.168-0.015,0.251
	c-0.01,0.159-0.021,0.319-0.022,0.477c0,0.1,0.008,0.199,0.012,0.299c0.005,0.141,0.007,0.281,0.02,0.422
	c0.013,0.14,0.036,0.278,0.057,0.418c0.015,0.097,0.024,0.196,0.043,0.293c0.032,0.173,0.077,0.346,0.122,0.517
	c0.016,0.062,0.027,0.125,0.046,0.186c0.052,0.181,0.115,0.359,0.181,0.536c0.019,0.051,0.033,0.103,0.054,0.153
	c0.064,0.16,0.138,0.317,0.212,0.473c0.032,0.067,0.061,0.138,0.095,0.205c0.065,0.126,0.14,0.248,0.213,0.372
	c0.055,0.094,0.106,0.191,0.166,0.282c0.061,0.093,0.129,0.182,0.193,0.275c0.084,0.118,0.166,0.235,0.256,0.35
	c0.057,0.069,0.119,0.136,0.177,0.204c0.107,0.126,0.218,0.251,0.335,0.37c0.016,0.017,0.029,0.034,0.046,0.051
	c0.052,0.052,0.106,0.094,0.159,0.144c0.115,0.108,0.229,0.216,0.351,0.318c0.095,0.079,0.194,0.15,0.291,0.225
	c0.099,0.075,0.197,0.151,0.301,0.221c0.13,0.089,0.264,0.169,0.398,0.248c0.063,0.038,0.121,0.079,0.185,0.115l59.362,32.976
	c-7.2,12.405-12.649,23.405-16.252,32.887c-1.064,2.788-0.385,5.951,1.734,8.07l17.977,17.977c0.003,0.003,0.006,0.007,0.009,0.01
	c0.003,0.003,0.007,0.006,0.01,0.009l21.486,21.486c0.003,0.003,0.006,0.007,0.009,0.01c0.003,0.003,0.007,0.006,0.01,0.009
	l21.486,21.487c0.004,0.003,0.007,0.007,0.01,0.01c0.003,0.003,0.007,0.006,0.01,0.009l17.976,17.975
	c1.419,1.419,3.386,2.23,5.393,2.23c0.923,0,1.825-0.172,2.676-0.497c9.464-3.602,20.488-9.048,32.891-16.247l32.886,59.202
	c0.002,0.003,0.004,0.006,0.005,0.009l0.083,0.149c0.018,0.031,0.041,0.059,0.059,0.09c0.133,0.232,0.279,0.455,0.439,0.675
	c0.049,0.067,0.097,0.136,0.148,0.201c0.164,0.212,0.341,0.417,0.53,0.613c0.031,0.032,0.06,0.069,0.092,0.101
	c0.001,0.001,0.002,0.003,0.003,0.004c0.214,0.214,0.44,0.408,0.671,0.591c0.072,0.057,0.148,0.108,0.222,0.162
	c0.183,0.135,0.37,0.26,0.563,0.376c0.071,0.043,0.142,0.085,0.214,0.126c0.257,0.144,0.519,0.275,0.787,0.387
	c0.006,0.002,0.012,0.006,0.018,0.008c0.287,0.119,0.58,0.215,0.876,0.297c0.064,0.018,0.128,0.03,0.191,0.047
	c0.232,0.058,0.466,0.104,0.702,0.14c0.082,0.012,0.162,0.025,0.244,0.035c0.285,0.032,0.573,0.056,0.86,0.056
	c0.012,0.001,0.024,0.003,0.036,0.003c0.03,0,0.062-0.005,0.092-0.006c0.247-0.003,0.494-0.018,0.739-0.046
	c0.101-0.011,0.201-0.028,0.302-0.044c0.191-0.028,0.378-0.064,0.567-0.107c0.097-0.022,0.193-0.044,0.289-0.07
	c0.243-0.065,0.484-0.144,0.719-0.233c0.033-0.013,0.067-0.021,0.101-0.034c0.282-0.113,0.559-0.245,0.827-0.393
	c0.016-0.009,0.032-0.014,0.049-0.022c0.06-0.032,0.113-0.072,0.171-0.106c0.141-0.083,0.279-0.166,0.416-0.26
	c0.098-0.066,0.191-0.139,0.284-0.209c0.103-0.077,0.207-0.153,0.307-0.237c0.117-0.097,0.226-0.199,0.336-0.302
	c0.057-0.054,0.116-0.1,0.171-0.155c0.042-0.042,0.081-0.082,0.123-0.124c0.001-0.002,0.003-0.003,0.003-0.003
	c93.928-93.98,97.403-152.005,96.014-168.509c6.791-6.267,13.156-12.355,18.933-18.134c18.583-18.552,34.884-37.804,48.449-57.248
	c12.977-18.583,23.814-37.855,32.218-57.279c4.079-9.419,7.637-19.012,10.664-28.706c0.132-0.344,0.235-0.696,0.316-1.052
	C502.33,90.576,504.656,81.501,506.485,72.394z M235.91,138.66c-4.626,5.261-9.317,10.707-14.036,16.307
	c-17.103,20.276-33.698,41.474-47.992,61.313c-8.983,12.491-16.857,24.12-23.596,34.847l-50.957-28.307
	c29.499-28.561,70.753-62.78,111.688-77.756C221.232,141.325,229.547,139.501,235.91,138.66z M214.089,369.799l-9.066-9.066
	l1.793-1.794c2.969-2.969,2.969-7.784-0.001-10.752s-7.783-2.969-10.752,0.001l-1.792,1.793l-10.752-10.752l1.792-1.793
	c2.969-2.97,2.969-7.784,0-10.753c-2.97-2.968-7.784-2.968-10.753,0l-1.793,1.792l-10.751-10.751l1.792-1.793
	c2.969-2.97,2.969-7.784,0-10.753c-2.97-2.968-7.784-2.968-10.753,0l-1.793,1.793l-9.066-9.066
	c2.94-6.959,6.983-14.941,12.045-23.806l83.658,83.657C229.033,362.814,221.066,366.847,214.089,369.799z M366.927,300.975
	c-14.975,40.938-49.192,82.191-77.754,111.691l-28.313-50.967c15.832-9.933,33.537-22.298,52.62-36.739
	c20.445-15.486,41.194-32.464,59.848-48.873C372.488,282.447,370.663,290.761,366.927,300.975z M428.616,23.615
	c8.632-2.222,17.378-4.014,26.144-5.346c13.331-2.017,27.149-3.051,41.048-3.063c0.324,0,0.65,0,0.963,0
	c0.01,0.324,0.01,0.65,0.01,0.973c-0.029,18.126-1.784,36.03-5.22,53.213c-0.932,4.667-2.002,9.326-3.197,13.968L428.616,23.615z"/>
<path d="M122.584,331.112c-15.57,0-30.209,6.062-41.217,17.073c-10.991,10.99-35.293,43.862-53.95,75.279
	c-10.837,18.247-18.579,33.901-23.01,46.525c-6.197,17.653-5.845,29.598,1.077,36.521C9.128,510.153,14.271,512,20.772,512
	c37.77,0,126.744-65.091,143.034-81.377c22.726-22.73,22.726-59.711-0.001-82.438C152.794,337.175,138.156,331.112,122.584,331.112z
	 M153.052,419.87c-8.348,8.348-34.269,27.959-61.586,45.089c-32.263,20.231-58.03,31.834-70.694,31.834
	c-2.191,0-3.886-0.388-4.536-1.037c-2.455-2.454-2.883-18.831,24.255-64.526c19.458-32.762,42.878-63.541,51.629-72.292
	c8.137-8.137,18.957-12.619,30.465-12.619c11.509,0,22.329,4.482,30.467,12.62C169.85,375.736,169.849,403.071,153.052,419.87z"/>
<path d="M290.426,178.477c-11.508,0-22.329,4.483-30.465,12.62c-8.139,8.138-12.622,18.958-12.622,30.467
	c0,11.508,4.483,22.328,12.621,30.465c8.138,8.138,18.957,12.62,30.466,12.62c11.508,0,22.328-4.482,30.465-12.619
	c8.14-8.137,12.622-18.957,12.621-30.467c0-11.508-4.482-22.328-12.62-30.465C312.754,182.958,301.934,178.477,290.426,178.477z
	 M310.138,241.275c-5.265,5.266-12.267,8.166-19.712,8.166c-7.447,0-14.447-2.899-19.713-8.166
	c-5.266-5.265-8.167-12.267-8.167-19.712c0-7.447,2.9-14.448,8.168-19.714c5.265-5.266,12.267-8.166,19.712-8.166
	c7.446,0,14.447,2.899,19.712,8.167c5.267,5.266,8.167,12.267,8.167,19.713C318.306,229.01,315.406,236.011,310.138,241.275z"/>
<path d="M376.457,178.617c11.508,0,22.328-4.482,30.465-12.62c8.139-8.137,12.621-18.957,12.621-30.466
	c-0.001-11.509-4.483-22.329-12.62-30.466c-8.138-8.139-18.958-12.621-30.466-12.621c-11.509,0-22.329,4.482-30.468,12.62
	c-16.798,16.799-16.798,44.133,0.001,60.932C354.128,174.135,364.947,178.617,376.457,178.617z M356.742,115.819
	c5.267-5.266,12.269-8.167,19.715-8.167c7.446,0,14.447,2.899,19.712,8.167c5.266,5.265,8.167,12.267,8.167,19.713
	c0,7.447-2.899,14.447-8.167,19.713c-5.265,5.266-12.267,8.166-19.712,8.166c-7.447,0-14.448-2.9-19.714-8.167
	C345.872,144.375,345.872,126.688,356.742,115.819z"/>
<path d="M122.585,361.525c-7.447,0-14.448,2.899-19.714,8.165c-4.519,4.52-19.91,23.318-32.807,41.353
	c-7.56,10.571-13.267,19.452-16.961,26.401c-4.49,8.442-8.281,17.871-2.354,23.799c1.389,1.388,3.877,3.042,7.849,3.042
	c3.215,0,11.752,0,46.243-25.171c17.111-12.486,33.349-25.886,37.459-29.996c10.87-10.871,10.87-28.557,0-39.428
	C137.034,364.426,130.032,361.524,122.585,361.525z M131.546,398.364c-3.018,3.019-18.233,15.722-35.355,28.237
	c-15.59,11.395-25.05,17.013-30.585,19.784c2.771-5.535,8.388-14.995,19.784-30.585c12.515-17.124,25.216-32.339,28.235-35.356
	c2.393-2.394,5.576-3.711,8.961-3.711c3.385,0,6.568,1.318,8.961,3.711C136.487,385.385,136.487,393.424,131.546,398.364z"/>
<g>
</g>
<g>
</g>
<g>
</g>
<g>
</g>
<g>
</g>
<g>
</g>
<g>
</g>
<g>
</g>
<g>
</g>
<g>
</g>
<g>
</g>
<g>
</g>
<g>
</g>
<g>
</g>
<g>
</g>
</svg>
